<?xml version="1.0" standalone="no"?><!DOCTYPE svg PUBLIC "-//W3C//DTD SVG 1.1//EN" "http://www.w3.org/Graphics/SVG/1.1/DTD/svg11.dtd"><svg t="1753584772055" class="icon" viewBox="0 0 1024 1024" version="1.1" xmlns="http://www.w3.org/2000/svg" p-id="6009" width="128" height="128" xmlns:xlink="http://www.w3.org/1999/xlink"><path d="M731.562667 172.842667C705.237333 170.709333 671.402667 170.666667 622.933333 170.666667H320a42.666667 42.666667 0 1 1 0-85.333334h304.768c46.250667 0 83.541333 0 113.749333 2.474667 31.104 2.56 58.410667 7.893333 83.669334 20.778667a213.333333 213.333333 0 0 1 93.226666 93.226666c12.885333 25.258667 18.261333 52.608 20.778667 83.669334C938.666667 315.733333 938.666667 352.981333 938.666667 399.232V704a42.666667 42.666667 0 1 1-85.333334 0V401.066667c0-48.512 0-82.304-2.176-108.629334-2.133333-25.813333-6.058667-40.661333-11.776-51.882666a128 128 0 0 0-55.936-55.936c-11.221333-5.717333-26.069333-9.642667-51.882666-11.776z" p-id="6010" fill="#1296db"></path><path d="M262.869333 234.666667h348.928c22.485333 0 41.856 0 57.856 1.28 16.853333 1.408 33.664 4.437333 49.792 12.672a128 128 0 0 1 55.936 55.936c8.234667 16.128 11.264 32.938667 12.629334 49.792 1.322667 16 1.322667 35.413333 1.322666 57.856v348.928c0 22.485333 0 41.898667-1.28 57.856-1.408 16.853333-4.437333 33.664-12.672 49.792a128 128 0 0 1-55.936 55.936c-16.128 8.234667-32.938667 11.264-49.792 12.629333-16 1.322667-35.413333 1.322667-57.856 1.322667H262.826667c-22.485333 0-41.856 0-57.856-1.28-16.853333-1.408-33.664-4.437333-49.792-12.672a128 128 0 0 1-55.936-55.936c-8.234667-16.128-11.264-32.938667-12.629334-49.792A763.733333 763.733333 0 0 1 85.333333 761.088V412.245333c0-22.485333 0-41.856 1.28-57.856 1.408-16.853333 4.437333-33.664 12.672-49.792a128 128 0 0 1 55.936-55.936c16.128-8.234667 32.938667-11.264 49.792-12.629333 16-1.322667 35.413333-1.322667 57.856-1.322667zM211.968 321.024c-11.605333 0.938667-15.914667 2.56-18.005333 3.626667a42.666667 42.666667 0 0 0-18.645334 18.645333c-1.066667 2.133333-2.688 6.4-3.626666 18.005333C170.666667 373.333333 170.666667 389.248 170.666667 413.866667v345.6c0 24.618667 0 40.490667 1.024 52.565333 0.938667 11.605333 2.56 15.872 3.626666 18.005333a42.666667 42.666667 0 0 0 18.645334 18.645334c2.133333 1.066667 6.4 2.688 18.005333 3.626666C224 853.333333 239.914667 853.333333 264.533333 853.333333h345.6c24.618667 0 40.490667 0 52.565334-1.024 11.605333-0.938667 15.914667-2.56 18.005333-3.626666a42.666667 42.666667 0 0 0 18.645333-18.645334c1.066667-2.133333 2.688-6.4 3.626667-18.005333 0.981333-12.074667 1.024-27.946667 1.024-52.565333V413.866667c0-24.618667 0-40.490667-1.024-52.565334-0.938667-11.605333-2.56-15.914667-3.626667-18.005333a42.666667 42.666667 0 0 0-18.645333-18.645333c-2.133333-1.066667-6.4-2.688-18.005333-3.626667C650.666667 320 634.752 320 610.133333 320H264.533333c-24.618667 0-40.490667 0-52.565333 1.024z" p-id="6011" fill="#1296db"></path></svg>